<?xml version="1.0" standalone="no"?>
<!DOCTYPE svg PUBLIC "-//W3C//DTD SVG 20010904//EN"
 "http://www.w3.org/TR/2001/REC-SVG-20010904/DTD/svg10.dtd">
<svg version="1.0" xmlns="http://www.w3.org/2000/svg"
 width="2048.000000pt" height="2048.000000pt" viewBox="0 0 2048.000000 2048.000000"
 preserveAspectRatio="xMidYMid meet">

<g transform="translate(0.000000,2048.000000) scale(0.100000,-0.100000)"
fill="#000000" stroke="none">
<path d="M7100 15255 l0 -1465 1465 0 1465 0 0 1465 0 1465 -1465 0 -1465 0 0
-1465z"/>
<path d="M10450 15255 l0 -1465 1465 0 1465 0 0 1465 0 1465 -1465 0 -1465 0
0 -1465z"/>
<path d="M3760 11915 l0 -1465 1465 0 1465 0 0 1465 0 1465 -1465 0 -1465 0 0
-1465z"/>
<path d="M13790 11915 l0 -1465 1465 0 1465 0 0 1465 0 1465 -1465 0 -1465 0
0 -1465z"/>
<path d="M7102 8568 l3 -1463 1463 -3 1462 -2 0 1465 0 1465 -1465 0 -1465 0
2 -1462z"/>
<path d="M13790 8565 l0 -1465 1465 0 1465 0 0 1465 0 1465 -1465 0 -1465 0 0
-1465z"/>
<path d="M10450 5225 l0 -1465 1465 0 1465 0 0 1465 0 1465 -1465 0 -1465 0 0
-1465z"/>
</g>
</svg>
